<?xml version="1.0"?>
<svg xmlns="http://www.w3.org/2000/svg" viewBox="0 0 512 512" width="512" height="512"><g id="outline"><path d="M256,320a48,48,0,1,0,48,48A48.055,48.055,0,0,0,256,320Zm0,80a32,32,0,1,1,32-32A32.036,32.036,0,0,1,256,400Z"/><path d="M432,314V285.045a76.62,76.62,0,0,0-21.971-53.877A77.492,77.492,0,0,0,354.955,208H157.045a77.5,77.5,0,0,0-55.075,23.168A76.623,76.623,0,0,0,80,285.045V314a22.025,22.025,0,0,0,22,22h77.376c-27.489,26.191-43.168,59.817-44.967,96.811A20.023,20.023,0,0,0,120,452v36a8,8,0,0,0,8,8H384a8,8,0,0,0,8-8V452a20.023,20.023,0,0,0-14.409-19.189c-1.8-36.994-17.479-70.621-44.968-96.811H410A22.025,22.025,0,0,0,432,314ZM96,285.045a60.71,60.71,0,0,1,17.408-42.689A61.4,61.4,0,0,1,157.045,224h197.91a61.4,61.4,0,0,1,43.637,18.356A60.712,60.712,0,0,1,416,285.045V288H96ZM102,320a6.006,6.006,0,0,1-6-6V304H201.285l-6.737,16ZM376,452v28H136V452a4,4,0,0,1,4-4H372A4,4,0,0,1,376,452Zm-14.467-20H150.467c2.32-37.77,21.09-71.556,53.444-95.822a8,8,0,0,0,2.573-3.3L218.667,304h74.666l12.183,28.882a8,8,0,0,0,2.573,3.3C340.443,360.444,359.213,394.23,361.533,432ZM317.452,320l-6.737-16H416v10a6.006,6.006,0,0,1-6,6Z"/><circle cx="256" cy="88" r="14"/><circle cx="214" cy="88" r="14"/><circle cx="298" cy="88" r="14"/><path d="M268.225,191.053a8,8,0,0,0,8.212-.4L322.422,160H328a32.036,32.036,0,0,0,32-32V48a32.036,32.036,0,0,0-32-32H184a32.036,32.036,0,0,0-32,32v80a32.036,32.036,0,0,0,32,32h80v24A8,8,0,0,0,268.225,191.053ZM184,144a16.019,16.019,0,0,1-16-16V48a16.019,16.019,0,0,1,16-16H328a16.019,16.019,0,0,1,16,16v80a16.019,16.019,0,0,1-16,16h-8a7.993,7.993,0,0,0-4.438,1.344L280,169.052V152a8,8,0,0,0-8-8Z"/></g></svg>
