<svg id="Layer_5" enable-background="new 0 0 64 64" height="512" viewBox="0 0 64 64" width="512" xmlns="http://www.w3.org/2000/svg"><g><path d="m63 17v-4c0-6.617-5.383-12-12-12-7.423 0-8 3.062-8 4 0 .418.131 1.008 1.497 2.66-.174.186-.346.374-.504.578l-.592.762h-24.459c-.246-2.189-1.288-4.231-2.948-5.713-1.908-1.706-4.471-2.517-7.039-2.228-4.052.459-7.365 3.723-7.88 7.763-.447 3.508 1.118 6.865 4.085 8.761.518.332.84.97.84 1.667v1.75c0 2.206 1.794 4 4 4s4-1.794 4-4v-1.792c0-.669.33-1.297.862-1.639 2.307-1.484 3.778-3.891 4.075-6.57h22.908l-3.021 3.883.478.958c.668 1.333 2.006 2.16 3.494 2.16 1.044 0 2.025-.406 2.763-1.144l.855-.856h.586v2.382l-2.131 1.065c-2.387 1.194-3.869 3.593-3.869 6.261v1.292c-1.103 0-2 .897-2 2v2c0 1.103.897 2 2 2h10v8.051c-5.268.478-9.472 4.681-9.949 9.949h-18.102c-.478-5.268-4.681-9.472-9.949-9.949v-8.051h6v10h18v-22h-18v10h-8v10.051c-5.598.507-10 5.221-10 10.949 0 6.065 4.935 11 11 11 5.728 0 10.442-4.402 10.949-10h18.101c.508 5.598 5.222 10 10.95 10 6.065 0 11-4.935 11-11 0-5.728-4.402-10.442-10-10.949v-8.051h8c1.103 0 2-.897 2-2v-2c0-1.103-.897-2-2-2v-3.515c0-.962-.212-1.89-.585-2.756 1.507-.574 2.585-2.023 2.585-3.729zm-53 6c-1.103 0-2-.897-2-2h4c0 1.103-.897 2-2 2zm-1-13c0-.551.448-1 1-1s1 .449 1 1-.448 1-1 1-1-.449-1-1zm4.781 5.887c-1.058.679-1.704 1.832-1.768 3.113h-1.013v-6.184c1.161-.414 2-1.514 2-2.816 0-1.654-1.346-3-3-3s-3 1.346-3 3c0 1.302.839 2.402 2 2.816v6.184h-1.015c-.074-1.292-.711-2.44-1.749-3.102-2.308-1.475-3.525-4.089-3.177-6.823.399-3.137 2.974-5.673 6.12-6.029.279-.031.555-.046.829-.046 1.726 0 3.354.617 4.654 1.778 1.485 1.327 2.338 3.231 2.338 5.222 0 2.39-1.203 4.591-3.219 5.887zm7.219 7.113h14v18h-14zm-9 38c-4.963 0-9-4.038-9-9s4.037-9 9-9 9 4.038 9 9-4.037 9-9 9zm49-9c0 4.962-4.037 9-9 9s-9-4.038-9-9 4.037-9 9-9 9 4.038 9 9zm.001-21h-20.001v-2h20zm-18.001-4v-1.292c0-1.906 1.059-3.62 2.764-4.472l3.236-1.618v-3.719c2.279-.465 4-2.484 4-4.899h-2c0 1.654-1.346 3-3 3h-2.414l-1.441 1.442c-.361.36-.839.558-1.349.558-.664 0-1.267-.337-1.614-.891l4.39-5.643c1.218-1.567 3.056-2.466 5.041-2.466 3.522 0 6.387 2.865 6.387 6.387v.169c-1.19.694-2 1.97-2 3.444 0 1.959 1.417 3.586 3.279 3.927.464.774.721 1.646.721 2.558v3.515zm18-10c0 1.103-.897 2-2 2s-2-.897-2-2 .897-2 2-2h1v-2h-1c-.007 0-.013.002-.02.002-.203-4.445-3.873-8.002-8.367-8.002-1.663 0-3.245.484-4.589 1.367-.752-.911-.967-1.311-1.02-1.436.081-.706 1.404-1.931 5.996-1.931 5.514 0 10 4.486 10 10z"/><circle cx="49" cy="10" r="1"/><path d="m51 45v2.145c-1.155.366-2 1.435-2 2.709 0 1.088.604 2.066 1.578 2.553l1.949.975c.292.145.473.438.473.764 0 .471-.384.854-.854.854h-.291c-.471 0-.855-.383-.855-.854v-.146h-2v.146c0 1.274.845 2.343 2 2.709v2.145h2v-2.145c1.155-.366 2-1.435 2-2.709 0-1.088-.604-2.066-1.578-2.553l-1.949-.975c-.292-.145-.473-.438-.473-.764 0-.471.384-.854.854-.854h.291c.471 0 .855.383.855.854v.146h2v-.146c0-1.274-.845-2.343-2-2.709v-2.145z"/><path d="m10 55.586-2.293-2.293-1.414 1.414 3.707 3.707 8.707-8.707-1.414-1.414z"/><path d="m23 25h10v2h-10z"/><path d="m31 29h2v2h-2z"/><path d="m23 29h6v2h-6z"/><path d="m23 33h10v2h-10z"/><path d="m23 37h10v2h-10z"/></g></svg>