<svg height="512" viewBox="0 0 64 64" width="512" xmlns="http://www.w3.org/2000/svg"><path d="m29 56h-24a1 1 0 0 1 -1-1v-45h48v9a1 1 0 0 0 2 0v-14a3 3 0 0 0 -3-3h-46a3 3 0 0 0 -3 3v50a3 3 0 0 0 3 3h24a1 1 0 0 0 0-2zm-24-52h46a1 1 0 0 1 1 1v3h-48v-3a1 1 0 0 1 1-1z"/><path d="m6 5h2v2h-2z"/><path d="m10 5h2v2h-2z"/><path d="m14 5h2v2h-2z"/><path d="m8 15v36a1 1 0 0 0 2 0v-36a1 1 0 0 0 -2 0z"/><path d="m16.832 15.445a1 1 0 0 0 -1.387-.277l-3 2a1 1 0 0 0 0 1.664l3 2a1 1 0 1 0 1.11-1.664l-1.755-1.168 1.752-1.168a1 1 0 0 0 .28-1.387z"/><path d="m24.555 20.832 3-2a1 1 0 0 0 0-1.664l-3-2a1 1 0 0 0 -1.11 1.664l1.755 1.168-1.752 1.168a1 1 0 0 0 1.11 1.664z"/><path d="m19 22a1 1 0 0 0 .949-.684l2-6a1 1 0 0 0 -1.9-.632l-2 6a1 1 0 0 0 .951 1.316z"/><path d="m12 25h4v2h-4z"/><path d="m18 25h6v2h-6z"/><path d="m16 29h14v2h-14z"/><path d="m16 33h2v2h-2z"/><path d="m20 33h10v2h-10z"/><path d="m12 37h4v2h-4z"/><path d="m18 37h6v2h-6z"/><path d="m16 41h14v2h-14z"/><path d="m16 45h10v2h-10z"/><path d="m12 49h4v2h-4z"/><path d="m18 49h6v2h-6z"/><path d="m61 22h-24a1 1 0 0 0 -1 1v3h-3a1 1 0 0 0 -1 1v34a1 1 0 0 0 1 1h24a1 1 0 0 0 1-1v-3h3a1 1 0 0 0 1-1v-34a1 1 0 0 0 -1-1zm-5 38h-22v-32h16v5a1 1 0 0 0 1 1h5zm-1.414-28h-2.586v-2.586zm5.414 24h-2v-23a1.009 1.009 0 0 0 -.293-.707l-6-6a1.009 1.009 0 0 0 -.707-.293h-13v-2h22z"/><path d="m28 45h2v2h-2z"/><path d="m36 32h4v2h-4z"/><path d="m42 32h6v2h-6z"/><path d="m40 36h14v2h-14z"/><path d="m40 40h2v2h-2z"/><path d="m44 40h10v2h-10z"/><path d="m36 44h4v2h-4z"/><path d="m42 44h6v2h-6z"/><path d="m40 48h14v2h-14z"/><path d="m40 52h10v2h-10z"/><path d="m36 56h4v2h-4z"/><path d="m42 56h6v2h-6z"/><path d="m52 52h2v2h-2z"/></svg>